<svg width="50" height="50" viewBox="0 0 50 50" fill="none" xmlns="http://www.w3.org/2000/svg">
<path fill-rule="evenodd" clip-rule="evenodd" d="M47.9166 25.0002C47.9166 37.6567 37.6565 47.9168 25 47.9168C12.3435 47.9168 2.08331 37.6567 2.08331 25.0002C2.08331 12.3436 12.3435 2.0835 25 2.0835C37.6565 2.0835 47.9166 12.3436 47.9166 25.0002ZM34.8214 40.9752C31.9651 42.735 28.6011 43.7502 25 43.7502C24.1575 43.7502 23.328 43.6946 22.515 43.5869L21.8749 41.6668L24.9999 37.6227V33.2109H20.8333L18.5448 28.7992H13.5416L11.4583 25.0001L6.4179 27.5204C6.39381 27.3411 6.37226 27.161 6.35328 26.9801L10.4166 22.9168L14.5833 20.8335L17.7083 18.7501L19.7916 15.6251L22.9166 13.5418L23.9583 8.33347L18.9983 7.23126C20.8826 6.59505 22.901 6.25016 25 6.25016C26.4699 6.25016 27.9003 6.41931 29.2729 6.73921L26.0416 15.6251L30.2083 16.6668L33.3333 15.6251L39.5833 18.7501L42.539 18.3566C42.8199 19.0978 43.0551 19.8614 43.2413 20.6441H34.8214L30.2083 17.7085H26.0416L22.9166 21.4016V28.0304L27.6785 34.6592L31.25 33.3335L34.8214 35.985V40.9752ZM38.988 37.4862V33.889L31.9189 28.6407L29.2082 29.6469L27.0833 26.689V22.9279L27.9741 21.8751H28.9949L33.608 24.8107H43.1144L43.748 25.2758C43.6805 29.9632 41.8928 34.2343 38.988 37.4862ZM40.4481 14.3708C38.6104 11.7051 36.1005 9.53842 33.1632 8.11569L33.0273 8.60692L31.8984 11.7114L33.653 11.1265L40.3183 14.4592L40.4481 14.3708ZM11.2438 12.2591C9.07809 14.5963 7.50062 17.4864 6.7468 20.6941L7.94845 19.4924L12.4879 17.2227L14.7037 15.7455L16.787 12.6205L18.6009 11.4112L15.0072 10.6126L11.2438 12.2591ZM7.48961 31.7187C9.31385 36.4702 13.0164 40.2907 17.6882 42.271L17.466 40.5581L19.9236 37.3776H18.3007L16.0123 32.9658H11.0745L9.80385 30.6488L7.48961 31.7187Z" fill="inherit"/>
</svg>
